# xmcd
#
# Track frame offsets:
#	150
#	15417
#	30607
#	53382
#	84972
#	116695
#
# Disc length: 1793 seconds
#
# Revision: 1
# Processed by: cddbd v1.5.2PL0 Copyright (c) Steve Scherf et al.
# Submitted via: audiograbber 1.83.01
#
DISCID=3506ff06
DTITLE=New Creation - CD Single
DYEAR=1997
DGENRE=
TTITLE0=Love All Over Again (Radio Edit)
TTITLE1=Love All Over Again (Sunshine State Edit)
TTITLE2=Love All Over Again (R'nB Flava Mix)
TTITLE3=Love All Over Again (Sunshine State Club Remix)
TTITLE4=Love All Over Again (Junglist Mix)
TTITLE5=Love All Over Again (Original Version)
EXTD=
EXTT0=
EXTT1=
EXTT2=
EXTT3=
EXTT4=
EXTT5=
PLAYORDER=
